<?xml version="1.0" encoding="UTF-8" standalone="no"?>
<!DOCTYPE svg PUBLIC "-//W3C//DTD SVG 1.1//EN" "http://www.w3.org/Graphics/SVG/1.1/DTD/svg11.dtd">
<svg width="100%" height="100%" viewBox="0 0 138 150" version="1.1" xmlns="http://www.w3.org/2000/svg" xmlns:xlink="http://www.w3.org/1999/xlink" xml:space="preserve" xmlns:serif="http://www.serif.com/" style="fill-rule:evenodd;clip-rule:evenodd;stroke-linejoin:round;stroke-miterlimit:2;">
    <g transform="matrix(1,0,0,1,-2262.5,-150)">
        <g transform="matrix(1.04167,0,0,1.04167,2331.25,225)">
            <g transform="matrix(1,0,0,1,-66,-72)">
                <g transform="matrix(1,0,0,1,-1745.25,-57.2955)">
                    <g>
                        <g>
                            <g transform="matrix(1,0,0,1,1777.73,121.006)">
                                <path d="M0,-7.173C0.255,-6.736 0.406,-6.459 0.575,-6.192C2.85,-2.603 5.104,0.998 7.418,4.56C8.025,5.495 8.349,6.417 8.309,7.546C8.237,9.564 8.306,11.586 8.281,13.606C8.273,14.253 8.506,14.519 9.163,14.498C10.173,14.466 11.186,14.455 12.193,14.503C12.951,14.539 13.164,14.223 13.154,13.509C13.124,11.251 13.113,8.993 13.166,6.736C13.18,6.177 13.351,5.553 13.646,5.082C15.997,1.331 18.396,-2.389 20.776,-6.121C20.96,-6.408 21.111,-6.715 21.378,-7.193C19.738,-7.193 18.293,-7.166 16.849,-7.205C16.206,-7.223 15.811,-7.011 15.486,-6.448C14.552,-4.827 13.57,-3.233 12.599,-1.633C12.006,-0.657 11.397,0.309 10.729,1.389C10.47,0.98 10.291,0.714 10.127,0.439C8.76,-1.859 7.403,-4.163 6.021,-6.451C5.851,-6.733 5.554,-7.132 5.304,-7.141C3.598,-7.202 1.888,-7.173 0,-7.173M1.569,14.467C1.418,14.029 1.331,13.723 1.208,13.431C0.679,12.172 0.137,10.917 -0.398,9.66C-2.69,4.275 -4.992,-1.106 -7.259,-6.502C-7.534,-7.157 -7.888,-7.415 -8.591,-7.366C-9.419,-7.309 -10.257,-7.311 -11.085,-7.365C-11.811,-7.413 -12.191,-7.163 -12.484,-6.469C-15.289,0.182 -18.132,6.818 -20.96,13.459C-21.08,13.742 -21.153,14.043 -21.298,14.491C-19.833,14.491 -18.531,14.472 -17.231,14.499C-16.676,14.512 -16.364,14.315 -16.164,13.785C-15.723,12.619 -15.208,11.48 -14.761,10.316C-14.573,9.828 -14.295,9.638 -13.766,9.643C-11.21,9.665 -8.654,9.664 -6.099,9.643C-5.573,9.639 -5.282,9.826 -5.097,10.313C-4.652,11.479 -4.189,12.639 -3.692,13.783C-3.576,14.049 -3.298,14.429 -3.082,14.437C-1.577,14.494 -0.07,14.467 1.569,14.467M22.664,44.723C22.524,44.298 22.475,44.097 22.394,43.908C19.822,37.867 17.253,31.824 14.668,25.789C14.25,24.815 13.992,23.49 13.232,23.022C12.424,22.524 11.104,22.888 10.013,22.806C9.229,22.748 8.853,23.081 8.558,23.783C5.745,30.465 2.9,37.133 0.069,43.806C-0.038,44.06 -0.104,44.333 -0.237,44.745C1.227,44.745 2.529,44.725 3.83,44.755C4.395,44.768 4.698,44.54 4.896,44.027C5.336,42.891 5.834,41.778 6.271,40.641C6.466,40.132 6.746,39.888 7.319,39.892C9.875,39.914 12.431,39.911 14.986,39.892C15.512,39.889 15.802,40.088 15.989,40.573C16.44,41.736 16.913,42.892 17.417,44.033C17.535,44.3 17.807,44.685 18.021,44.693C19.519,44.75 21.02,44.723 22.664,44.723M50.742,33.807C50.742,37.136 50.744,40.465 50.739,43.794C50.739,44.301 50.744,44.759 51.455,44.746C54.662,44.691 57.887,44.842 61.074,44.56C66.719,44.061 70.764,39.46 70.771,33.864C70.779,28.244 66.782,23.695 61.092,23.175C57.995,22.891 54.859,23.05 51.742,22.966C50.949,22.945 50.72,23.233 50.728,23.999C50.76,27.268 50.741,30.538 50.742,33.807M-7.715,37.183C-6.669,36.361 -5.592,35.763 -4.851,34.882C-2.955,32.629 -2.8,29.987 -3.771,27.318C-4.729,24.687 -6.896,23.366 -9.532,23.191C-13.261,22.944 -17.012,23.04 -20.754,22.979C-21.349,22.97 -21.418,23.328 -21.418,23.792C-21.415,30.508 -21.411,37.224 -21.424,43.941C-21.425,44.575 -21.158,44.77 -20.564,44.754C-19.555,44.726 -18.543,44.715 -17.534,44.757C-16.798,44.788 -16.538,44.507 -16.555,43.774C-16.592,42.111 -16.54,40.445 -16.576,38.782C-16.593,38.075 -16.405,37.729 -15.632,37.798C-15.013,37.853 -14.381,37.852 -13.762,37.797C-13.074,37.736 -12.671,38.031 -12.313,38.586C-11.266,40.209 -10.11,41.765 -9.124,43.423C-8.519,44.438 -7.818,44.881 -6.619,44.773C-5.368,44.66 -4.099,44.747 -2.563,44.747C-4.408,42.037 -6.087,39.573 -7.715,37.183M39.7,5.759C39.63,5.773 39.56,5.788 39.49,5.803C36.899,2.404 34.291,-0.982 31.724,-4.398C29.554,-7.285 29.575,-7.282 26.002,-7.208C25.278,-7.193 25.079,-6.92 25.098,-6.253C25.131,-5.035 25.105,-3.817 25.105,-2.599C25.105,2.748 25.121,8.096 25.091,13.443C25.086,14.269 25.359,14.553 26.168,14.504C27.056,14.45 27.953,14.442 28.84,14.506C29.722,14.569 29.948,14.207 29.94,13.374C29.905,9.601 29.925,5.828 29.925,2.056L29.925,0.924C30.228,1.276 30.35,1.403 30.456,1.543C33.12,5.041 35.796,8.53 38.438,12.043C40.357,14.593 40.337,14.593 43.536,14.503C44.177,14.485 44.446,14.285 44.427,13.622C44.393,12.465 44.419,11.306 44.419,10.147L44.419,-5.806C44.419,-7.192 44.417,-7.192 42.992,-7.193C42.279,-7.194 41.562,-7.143 40.854,-7.205C39.972,-7.283 39.666,-6.989 39.681,-6.067C39.732,-2.77 39.7,0.528 39.7,3.825L39.7,5.759ZM39.708,35.954C39.646,35.976 39.583,35.999 39.521,36.022C39.338,35.808 39.145,35.603 38.975,35.38C36.49,32.12 33.87,28.952 31.58,25.56C30.221,23.547 28.705,22.641 26.311,22.998C25.16,23.169 25.12,23.05 25.12,24.225C25.117,29.958 25.118,35.691 25.119,41.424C25.119,42.285 25.138,43.147 25.116,44.008C25.103,44.583 25.346,44.802 25.915,44.786C26.895,44.761 27.879,44.729 28.854,44.796C29.735,44.857 29.96,44.512 29.951,43.673C29.913,39.901 29.934,36.128 29.937,32.356C29.937,32.048 29.965,31.741 29.987,31.265C30.269,31.589 30.429,31.756 30.568,31.939C33.217,35.411 35.867,38.881 38.508,42.358C40.407,44.86 40.401,44.865 43.521,44.78C43.55,44.78 43.58,44.776 43.609,44.78C44.23,44.845 44.44,44.553 44.439,43.948C44.428,37.265 44.426,30.581 44.442,23.898C44.444,23.227 44.179,23.004 43.546,23.02C42.597,23.046 41.644,23.065 40.695,23.014C39.902,22.973 39.686,23.289 39.692,24.055C39.727,27.708 39.708,31.362 39.708,35.015L39.708,35.954ZM27.698,-63.71L86.644,-63.71C88.026,-63.71 88.027,-63.71 88.027,-62.374C88.028,-23.171 88.028,16.033 88.027,55.236C88.027,56.535 88.025,56.536 86.701,56.536C47.434,56.537 8.167,56.537 -31.101,56.536C-32.479,56.536 -32.479,56.535 -32.479,55.115L-32.479,-62.317C-32.479,-63.709 -32.479,-63.709 -31.068,-63.709C-11.479,-63.709 8.109,-63.709 27.698,-63.71" style="fill:#9CA3AF;fill-rule:nonzero;"/>
                            </g>
                            <g transform="matrix(1,0,0,1,1812.39,201.239)">
                                <path d="M0,-12.298C1.367,-12.298 2.734,-12.273 4.1,-12.309C4.774,-12.327 5.053,-12.132 5.044,-11.406C5.025,-9.948 5.063,-9.957 3.576,-9.944C0.892,-9.921 1.329,-10.231 1.302,-7.687C1.277,-5.489 1.273,-3.29 1.308,-1.092C1.318,-0.385 1.07,-0.163 0.377,-0.184C-1.518,-0.243 -1.3,0.029 -1.31,-1.837C-1.322,-4.213 -1.334,-6.59 -1.301,-8.966C-1.291,-9.706 -1.565,-9.987 -2.288,-9.95C-2.939,-9.916 -3.596,-9.961 -4.248,-9.943C-4.801,-9.927 -5.095,-10.129 -5.051,-10.718C-5.031,-10.985 -5.03,-11.255 -5.052,-11.52C-5.097,-12.091 -4.858,-12.316 -4.277,-12.306C-2.852,-12.28 -1.426,-12.298 0,-12.298" style="fill:#9CA3AF;fill-rule:nonzero;"/>
                            </g>
                            <g transform="matrix(1,0,0,1,1875.98,174.011)">
                                <path d="M0,0.16C-0.003,-1.706 -1.554,-3.266 -3.396,-3.256C-5.205,-3.246 -6.734,-1.692 -6.727,0.129C-6.719,1.97 -5.201,3.481 -3.368,3.472C-1.495,3.462 0.003,1.99 0,0.16M-3.376,3.74C-5.511,3.737 -7.019,2.23 -7.015,0.104C-7.012,-1.978 -5.427,-3.583 -3.378,-3.58C-1.313,-3.577 0.339,-1.916 0.345,0.16C0.35,2.211 -1.242,3.743 -3.376,3.74" style="fill:#9CA3AF;fill-rule:nonzero;"/>
                            </g>
                            <g transform="matrix(1,0,0,1,1872.56,173.434)">
                                <path d="M0,0.897C0.437,0.438 0.683,0.18 0.927,-0.077C0.622,-0.284 0.337,-0.595 0.005,-0.657C-0.177,-0.691 -0.604,-0.316 -0.619,-0.105C-0.637,0.14 -0.322,0.408 0,0.897M1.1,1.277C1.311,1.656 1.522,2.036 1.751,2.446C1.069,2.693 0.818,2.257 0.497,1.862C0.296,1.613 -0.03,1.465 -0.301,1.272C-0.431,1.535 -0.543,1.809 -0.698,2.056C-0.792,2.204 -0.954,2.308 -1.085,2.432C-1.193,2.281 -1.391,2.133 -1.395,1.979C-1.424,1.032 -1.416,0.083 -1.402,-0.865C-1.4,-0.997 -1.337,-1.168 -1.24,-1.252C-0.618,-1.796 1.581,-1.247 1.701,-0.45C1.78,0.078 1.483,0.662 1.355,1.221C1.271,1.24 1.185,1.258 1.1,1.277" style="fill:#9CA3AF;fill-rule:nonzero;"/>
                            </g>
                        </g>
                        <g transform="matrix(1,0,0,1,1765.76,196.579)">
                            <path d="M0,-2.94L0,2.826C0,4.496 -0.387,4.815 -2.051,4.428C-2.243,4.383 -2.498,4.038 -2.499,3.83C-2.527,0.235 -2.516,-3.36 -2.524,-6.956C-2.525,-7.449 -2.31,-7.603 -1.83,-7.648C-0.719,-7.755 0.099,-7.522 0.794,-6.487C2.051,-4.616 3.498,-2.873 4.869,-1.079C5.042,-0.853 5.234,-0.642 5.584,-0.227C5.616,-0.846 5.65,-1.215 5.651,-1.585C5.658,-3.279 5.68,-4.973 5.644,-6.666C5.628,-7.385 5.854,-7.663 6.607,-7.654C8.186,-7.634 8.187,-7.67 8.187,-6.059C8.187,-2.999 8.201,0.061 8.17,3.122C8.165,3.562 7.96,4.367 7.801,4.379C7.031,4.438 6.174,4.785 5.528,3.901C4.038,1.863 2.482,-0.127 0.951,-2.136C0.723,-2.436 0.485,-2.73 0.252,-3.027C0.168,-2.998 0.084,-2.969 0,-2.94" style="fill:#9CA3AF;fill-rule:nonzero;"/>
                        </g>
                        <g transform="matrix(1,0,0,1,1846.25,195.06)">
                            <path d="M0,-0.149C0,-1.813 0.024,-3.478 -0.012,-5.142C-0.027,-5.846 0.159,-6.149 0.932,-6.135C3.368,-6.093 5.807,-6.077 8.242,-6.14C9.242,-6.166 9.153,-5.599 9.17,-4.949C9.188,-4.248 9.149,-3.757 8.197,-3.804C6.626,-3.881 5.047,-3.801 3.473,-3.835C2.811,-3.848 2.534,-3.599 2.6,-2.952C2.603,-2.922 2.6,-2.892 2.6,-2.862C2.563,-1.287 2.563,-1.287 4.104,-1.285C5.233,-1.285 6.363,-1.261 7.492,-1.294C8.095,-1.312 8.393,-1.121 8.33,-0.486C8.307,-0.251 8.31,-0.01 8.329,0.226C8.376,0.798 8.131,1.023 7.554,1.013C6.246,0.989 4.937,1.04 3.631,0.995C2.875,0.968 2.57,1.191 2.582,1.996C2.607,3.685 2.567,3.686 4.268,3.686C5.635,3.687 7.004,3.726 8.369,3.676C9.432,3.637 9.164,4.366 9.205,4.945C9.25,5.572 9.197,6.017 8.341,6C5.845,5.951 3.348,5.962 0.851,5.997C0.167,6.006 -0.021,5.749 -0.01,5.111C0.019,3.358 0,1.604 0,-0.149" style="fill:#9CA3AF;fill-rule:nonzero;"/>
                        </g>
                        <g transform="matrix(1,0,0,1,1820.15,197.315)">
                            <path d="M0,-4.217C0,-5.346 0.019,-6.476 -0.007,-7.605C-0.021,-8.185 0.212,-8.388 0.782,-8.381C2.933,-8.352 2.586,-8.566 2.609,-6.598C2.631,-4.756 2.585,-2.911 2.647,-1.071C2.704,0.604 3.704,1.503 5.332,1.475C6.887,1.45 7.83,0.528 7.869,-1.132C7.918,-3.182 7.927,-5.235 7.877,-7.284C7.855,-8.141 8.122,-8.497 8.984,-8.381C9.277,-8.341 9.615,-8.455 9.865,-8.346C10.121,-8.235 10.475,-7.938 10.478,-7.719C10.509,-5.312 10.61,-2.895 10.435,-0.5C10.208,2.585 7.585,4.349 4.267,3.859C1.605,3.466 0.104,1.797 0.014,-0.918C-0.023,-2.017 0.008,-3.117 0.008,-4.217L0,-4.217Z" style="fill:#9CA3AF;fill-rule:nonzero;"/>
                        </g>
                        <g transform="matrix(1,0,0,1,1777.16,191.175)">
                            <path d="M0,8.041C0.486,7.468 0.941,6.932 1.428,6.358C1.967,6.663 2.438,6.961 2.938,7.204C3.863,7.652 4.849,7.976 5.854,7.602C6.258,7.452 6.774,6.999 6.811,6.64C6.847,6.286 6.424,5.685 6.058,5.527C4.974,5.059 3.81,4.778 2.692,4.382C1.64,4.008 0.82,3.383 0.53,2.214C-0.033,-0.052 1.34,-2.029 3.794,-2.356C5.431,-2.575 6.975,-2.235 8.416,-1.396C9.008,-1.051 9.077,-0.71 8.64,-0.212C8.503,-0.058 8.384,0.119 8.288,0.301C7.979,0.895 7.634,0.929 7.004,0.643C6.188,0.273 5.282,0.047 4.392,-0.082C3.789,-0.169 3.189,0.125 3.05,0.832C2.903,1.57 3.41,1.915 4.008,2.123C5.156,2.521 6.351,2.809 7.459,3.294C9.436,4.159 10.103,6.267 8.986,8.119C8.653,8.672 8.093,9.176 7.519,9.48C5.37,10.616 1.803,9.931 0,8.041" style="fill:#9CA3AF;fill-rule:nonzero;"/>
                        </g>
                        <g transform="matrix(1,0,0,1,1794.04,201.224)">
                            <path d="M0,-12.284C1.366,-12.284 2.732,-12.251 4.097,-12.297C4.81,-12.321 5.082,-12.056 5.004,-11.37C4.99,-11.253 4.987,-11.131 5.005,-11.015C5.125,-10.19 4.854,-9.879 3.948,-9.907C1.293,-9.988 1.291,-9.946 1.291,-7.28C1.291,-5.202 1.272,-3.124 1.302,-1.046C1.312,-0.397 1.108,-0.153 0.438,-0.17C-1.657,-0.223 -1.312,0.037 -1.329,-1.902C-1.351,-4.218 -1.371,-6.534 -1.315,-8.848C-1.294,-9.73 -1.607,-10.013 -2.442,-9.941C-3.062,-9.888 -3.69,-9.956 -4.312,-9.917C-4.85,-9.882 -5.1,-10.071 -5.048,-10.617C-5.043,-10.677 -5.048,-10.736 -5.049,-10.796C-5.078,-12.283 -5.078,-12.284 -3.563,-12.284L0,-12.284" style="fill:#9CA3AF;fill-rule:nonzero;"/>
                        </g>
                        <g transform="matrix(1,0,0,1,1838.44,201.132)">
                            <path d="M0,-12.191C1.394,-12.191 2.789,-12.17 4.183,-12.201C4.786,-12.214 5.078,-12.018 5.02,-11.39C4.998,-11.154 5.001,-10.914 5.02,-10.678C5.067,-10.075 4.816,-9.807 4.196,-9.834C3.515,-9.863 2.83,-9.812 2.149,-9.843C1.488,-9.873 1.28,-9.59 1.286,-8.945C1.312,-6.336 1.266,-3.725 1.313,-1.115C1.328,-0.284 1.052,0.023 0.248,-0.084C0.016,-0.115 -0.229,-0.113 -0.463,-0.085C-1.128,-0.006 -1.339,-0.292 -1.332,-0.948C-1.305,-3.558 -1.35,-6.169 -1.305,-8.778C-1.291,-9.597 -1.557,-9.92 -2.368,-9.846C-2.839,-9.804 -3.317,-9.838 -3.792,-9.839C-4.898,-9.841 -5.547,-10.965 -4.95,-11.92C-4.838,-12.1 -4.447,-12.175 -4.183,-12.179C-2.789,-12.204 -1.395,-12.191 0,-12.191" style="fill:#9CA3AF;fill-rule:nonzero;"/>
                        </g>
                        <g transform="matrix(1,0,0,1,1759.15,195.081)">
                            <path d="M0,-0.08C-0.001,1.613 -0.028,3.306 0.013,4.998C0.03,5.718 -0.18,6.004 -0.938,5.977C-2.821,5.909 -2.611,6.204 -2.617,4.321C-2.628,1.203 -2.596,-1.916 -2.637,-5.034C-2.647,-5.865 -2.438,-6.284 -1.552,-6.141C-1.522,-6.136 -1.492,-6.14 -1.463,-6.14C-0.001,-6.145 -0.001,-6.145 0,-4.713L0,-0.08Z" style="fill:#9CA3AF;fill-rule:nonzero;"/>
                        </g>
                        <g transform="matrix(1,0,0,1,1804.48,195.088)">
                            <path d="M0,-0.041C0,1.651 -0.02,3.343 0.01,5.034C0.021,5.704 -0.176,5.992 -0.901,5.968C-2.717,5.909 -2.54,6.144 -2.545,4.354C-2.553,1.208 -2.508,-1.939 -2.569,-5.084C-2.589,-6.089 -2.129,-6.185 -1.333,-6.16C-0.016,-6.119 -0.006,-6.151 -0.001,-5.116C0.006,-3.424 0.001,-1.732 0,-0.041" style="fill:#9CA3AF;fill-rule:nonzero;"/>
                        </g>
                        <g transform="matrix(1,0,0,1,1761.17,151.485)">
                            <path d="M0,-0.086C0,-0.857 0.012,-1.628 -0.004,-2.398C-0.015,-2.913 0.182,-3.169 0.725,-3.152C2.382,-3.1 4.047,-3.142 5.696,-3.001C7.434,-2.852 8.396,-1.724 8.42,-0.06C8.443,1.514 7.395,2.805 5.729,2.943C4.021,3.083 2.294,3.026 0.576,2.989C0.379,2.984 0.049,2.563 0.026,2.313C-0.046,1.519 0,0.715 0,-0.086" style="fill:#9CA3AF;fill-rule:nonzero;"/>
                        </g>
                        <g transform="matrix(1,0,0,1,1833.32,154.873)">
                            <path d="M0,-0.029C0,-1.869 0.034,-3.711 -0.016,-5.55C-0.038,-6.348 0.25,-6.601 1.016,-6.55C2.169,-6.474 3.331,-6.517 4.481,-6.42C7.885,-6.131 10.179,-3.433 10.13,0.167C10.084,3.64 7.738,6.194 4.342,6.427C3.188,6.506 2.028,6.483 0.873,6.54C0.228,6.572 -0.022,6.338 -0.011,5.669C0.022,3.77 0.001,1.87 0,-0.029" style="fill:#9CA3AF;fill-rule:nonzero;"/>
                        </g>
                        <g transform="matrix(-0.911787,-0.410664,-0.410664,0.911787,1787.44,156.151)">
                            <path d="M1.078,-6.209C-0.576,-4.644 -2.229,-3.079 -3.996,-1.407L1.078,0.878C1.161,-1.489 1.242,-3.805 1.323,-6.121C1.241,-6.15 1.159,-6.18 1.078,-6.209" style="fill:#9CA3AF;fill-rule:nonzero;"/>
                        </g>
                        <g transform="matrix(1,0,0,1,1770.57,119.493)">
                            <path d="M0,6.797L-5.54,6.797C-4.626,4.545 -3.753,2.398 -2.779,0C-1.802,2.39 -0.926,4.531 0,6.797" style="fill:#9CA3AF;fill-rule:nonzero;"/>
                        </g>
                    </g>
                </g>
            </g>
        </g>
    </g>
</svg>
