<?xml version="1.0" encoding="UTF-8" standalone="no"?>
<!DOCTYPE svg PUBLIC "-//W3C//DTD SVG 1.1//EN" "http://www.w3.org/Graphics/SVG/1.1/DTD/svg11.dtd">
<svg width="100%" height="100%" viewBox="0 0 454 80" version="1.1" xmlns="http://www.w3.org/2000/svg" xmlns:xlink="http://www.w3.org/1999/xlink" xml:space="preserve" xmlns:serif="http://www.serif.com/" style="fill:#9ca3af fill-rule:evenodd;clip-rule:evenodd;stroke-linejoin:round;stroke-miterlimit:2;">
    <g transform="matrix(1,0,0,1,-165.388,-206.333)">
        <path d="M210.033,286.291C210.033,286.291 209.793,286.177 209.793,286.177C207.44,285.058 188.418,275.939 182.054,270.575C176.476,265.874 172.203,260.64 169.353,255.018C164.853,246.139 165.318,238.931 165.489,237.362C165.634,220.245 179.655,206.333 196.783,206.333C201.561,206.333 206.176,207.736 210.507,210.505C214.558,208.067 218.85,206.833 223.281,206.833C240.144,206.833 253.946,220.536 254.075,237.391C254.241,238.873 254.73,245.982 250.265,254.792C247.446,260.353 243.214,265.535 237.689,270.193C230.942,275.879 210.033,286.291 210.033,286.291ZM603.758,276.992C603.016,278.957 601.989,280.508 600.679,281.643C599.369,282.779 597.622,283.347 595.438,283.347C594.783,283.347 594.128,283.292 593.472,283.183C592.817,283.074 592.184,282.932 591.573,282.757L591.966,279.088C592.533,279.263 593.112,279.427 593.702,279.58C594.291,279.733 594.892,279.809 595.503,279.809C596.202,279.809 596.825,279.656 597.371,279.35C597.916,279.045 598.386,278.652 598.779,278.171C599.172,277.691 599.511,277.156 599.794,276.566C600.078,275.976 600.33,275.376 600.548,274.764L603.299,267.755L590.983,237.356L595.372,237.356L605.396,262.841L615.157,237.356L619.35,237.356L603.758,276.992ZM211.033,276.237C212.102,274.972 213.35,273.287 214.593,271.145C217.594,265.972 221.178,256.995 221.202,243.603C221.218,235.153 217.415,226.083 211.277,219.934C211.114,219.771 210.945,219.606 210.771,219.439L210.033,220.096L209.293,219.44C209.119,219.606 208.951,219.771 208.787,219.934C202.649,226.083 198.846,235.153 198.861,243.603C198.885,256.995 202.469,265.972 205.471,271.145C206.714,273.287 207.963,274.972 209.032,276.238L210.034,275.172L211.033,276.237ZM220,272.513C220,272.513 239.599,259.3 243.506,251.808C247.478,244.197 246.773,238.411 246.741,238.169L246.693,237.892L246.702,237.597C246.701,224.714 236.195,214.208 223.281,214.208C220.557,214.208 217.855,214.912 215.245,216.302C222.259,223.421 226.595,233.864 226.577,243.613C226.553,257.093 223.189,266.563 220,272.513ZM204.458,216.675C201.96,215.369 199.38,214.708 196.783,214.708C184.145,214.708 173.863,224.99 173.863,237.628L173.81,238.291C173.788,238.47 173.106,244.112 177.001,251.577C181.124,259.479 189.076,266.68 200.072,272.495C196.89,266.543 193.511,257.06 193.486,243.613C193.469,234.033 197.657,223.783 204.458,216.675ZM548.53,264.61C545.822,266.139 543.016,267.22 540.112,267.853C537.207,268.486 534.248,268.803 531.235,268.803C527.697,268.803 524.454,268.202 521.506,267.001C518.558,265.8 516.036,264.119 513.939,261.957C511.843,259.795 510.205,257.218 509.026,254.226C507.847,251.234 507.257,247.97 507.257,244.432C507.257,240.894 507.847,237.64 509.026,234.67C510.205,231.7 511.843,229.134 513.939,226.972C516.036,224.811 518.558,223.118 521.506,221.895C524.454,220.672 527.697,220.061 531.235,220.061C538.136,220.061 543.704,222.201 547.941,226.481L544.796,229.757C544.097,228.927 543.235,228.152 542.208,227.431C541.182,226.71 540.068,226.099 538.867,225.597C537.666,225.094 536.41,224.701 535.1,224.417C533.79,224.134 532.501,223.992 531.235,223.992C528.221,223.992 525.502,224.516 523.078,225.564C520.654,226.612 518.591,228.053 516.887,229.888C515.184,231.722 513.874,233.884 512.957,236.374C512.039,238.863 511.581,241.549 511.581,244.432C511.581,247.314 512.039,250 512.957,252.49C513.874,254.979 515.184,257.141 516.887,258.976C518.591,260.81 520.654,262.251 523.078,263.3C525.502,264.348 528.221,264.872 531.235,264.872C533.724,264.872 536.061,264.675 538.245,264.282C540.429,263.889 542.416,263.169 544.206,262.12L544.206,246.528L533.069,246.528L533.069,242.597L548.53,242.597L548.53,264.61ZM309.21,264.61C306.502,266.139 303.696,267.22 300.792,267.853C297.887,268.486 294.928,268.803 291.915,268.803C288.377,268.803 285.134,268.202 282.186,267.001C279.238,265.8 276.716,264.119 274.619,261.957C272.523,259.795 270.885,257.218 269.706,254.226C268.526,251.234 267.937,247.97 267.937,244.432C267.937,240.894 268.526,237.64 269.706,234.67C270.885,231.7 272.523,229.134 274.619,226.972C276.716,224.811 279.238,223.118 282.186,221.895C285.134,220.672 288.377,220.061 291.915,220.061C298.815,220.061 304.384,222.201 308.621,226.481L305.476,229.757C304.777,228.927 303.915,228.152 302.888,227.431C301.862,226.71 300.748,226.099 299.547,225.597C298.346,225.094 297.09,224.701 295.78,224.417C294.47,224.134 293.181,223.992 291.915,223.992C288.901,223.992 286.182,224.516 283.758,225.564C281.334,226.612 279.271,228.053 277.567,229.888C275.864,231.722 274.554,233.884 273.637,236.374C272.719,238.863 272.261,241.549 272.261,244.432C272.261,247.314 272.719,250 273.637,252.49C274.554,254.979 275.864,257.141 277.567,258.976C279.271,260.81 281.334,262.251 283.758,263.3C286.182,264.348 288.901,264.872 291.915,264.872C294.404,264.872 296.741,264.675 298.925,264.282C301.108,263.889 303.096,263.169 304.886,262.12L304.886,246.528L293.749,246.528L293.749,242.597L309.21,242.597L309.21,264.61ZM370.727,240.894L362.079,240.894L362.079,260.614C362.079,261.968 362.451,263.016 363.193,263.758C363.936,264.501 364.962,264.872 366.272,264.872C367.015,264.872 367.768,264.774 368.533,264.577C369.297,264.381 370.028,264.129 370.727,263.824L371.055,267.361C370.312,267.623 369.461,267.864 368.5,268.082C367.539,268.3 366.687,268.41 365.945,268.41C364.547,268.41 363.346,268.202 362.342,267.787C361.337,267.372 360.529,266.816 359.918,266.117C359.306,265.418 358.858,264.599 358.575,263.66C358.291,262.721 358.149,261.705 358.149,260.614L358.149,240.894L351.597,240.894L351.597,237.356L358.149,237.356L358.149,228.643L362.079,228.643L362.079,237.356L370.727,237.356L370.727,240.894ZM413.507,240.894L404.86,240.894L404.86,260.614C404.86,261.968 405.231,263.016 405.973,263.758C406.716,264.501 407.742,264.872 409.053,264.872C409.795,264.872 410.548,264.774 411.313,264.577C412.077,264.381 412.809,264.129 413.507,263.824L413.835,267.361C413.093,267.623 412.241,267.864 411.28,268.082C410.319,268.3 409.467,268.41 408.725,268.41C407.327,268.41 406.126,268.202 405.122,267.787C404.117,267.372 403.309,266.816 402.698,266.117C402.086,265.418 401.639,264.599 401.355,263.66C401.071,262.721 400.929,261.705 400.929,260.614L400.929,240.894L394.378,240.894L394.378,237.356L400.929,237.356L400.929,228.643L404.86,228.643L404.86,237.356L413.507,237.356L413.507,240.894ZM583.121,259.107C583.121,259.675 583.143,260.362 583.187,261.17C583.231,261.978 583.263,262.797 583.285,263.627C583.307,264.457 583.34,265.232 583.383,265.953C583.427,266.674 583.449,267.23 583.449,267.623L579.518,267.623C579.474,266.488 579.442,265.396 579.42,264.348C579.398,263.3 579.343,262.623 579.256,262.317L579.06,262.317C578.273,263.977 576.963,265.407 575.129,266.608C573.294,267.809 571.154,268.41 568.708,268.41C566.35,268.41 564.417,268.038 562.911,267.296C561.404,266.553 560.224,265.582 559.373,264.381C558.521,263.18 557.942,261.793 557.637,260.22C557.331,258.648 557.178,257.032 557.178,255.373L557.178,237.356L561.109,237.356L561.109,255.176C561.109,256.399 561.218,257.589 561.436,258.746C561.655,259.904 562.037,260.941 562.583,261.858C563.129,262.776 563.893,263.507 564.876,264.053C565.859,264.599 567.136,264.872 568.708,264.872C570.15,264.872 571.515,264.621 572.803,264.119C574.091,263.616 575.205,262.852 576.144,261.826C577.083,260.799 577.826,259.511 578.372,257.96C578.918,256.41 579.191,254.586 579.191,252.49L579.191,237.356L583.121,237.356L583.121,259.107ZM485.048,261.924C483.519,264.239 481.63,265.898 479.381,266.903C477.132,267.907 474.653,268.41 471.945,268.41C469.63,268.41 467.534,268.017 465.656,267.23C463.778,266.444 462.162,265.341 460.808,263.922C459.454,262.503 458.417,260.821 457.696,258.877C456.976,256.934 456.615,254.783 456.615,252.424C456.615,250.153 456.986,248.057 457.729,246.135C458.471,244.213 459.52,242.543 460.874,241.123C462.227,239.704 463.822,238.59 465.656,237.782C467.49,236.974 469.521,236.57 471.749,236.57C474.064,236.57 476.105,236.974 477.874,237.782C479.643,238.59 481.128,239.66 482.329,240.992C483.53,242.324 484.436,243.842 485.048,245.546C485.659,247.249 485.965,248.974 485.965,250.721L485.965,253.473L460.546,253.473C460.546,254.302 460.71,255.362 461.037,256.65C461.365,257.938 461.965,259.194 462.839,260.417C463.712,261.64 464.881,262.688 466.344,263.562C467.807,264.435 469.696,264.872 472.011,264.872C474.02,264.872 475.963,264.392 477.841,263.431C479.72,262.47 481.161,261.16 482.165,259.5L485.048,261.924ZM344.915,261.924C343.386,264.239 341.497,265.898 339.248,266.903C336.999,267.907 334.52,268.41 331.812,268.41C329.498,268.41 327.401,268.017 325.523,267.23C323.645,266.444 322.029,265.341 320.675,263.922C319.321,262.503 318.284,260.821 317.563,258.877C316.843,256.934 316.482,254.783 316.482,252.424C316.482,250.153 316.853,248.057 317.596,246.135C318.338,244.213 319.387,242.543 320.741,241.123C322.095,239.704 323.689,238.59 325.523,237.782C327.357,236.974 329.388,236.57 331.616,236.57C333.931,236.57 335.972,236.974 337.741,237.782C339.51,238.59 340.995,239.66 342.196,240.992C343.397,242.324 344.304,243.842 344.915,245.546C345.526,247.249 345.832,248.974 345.832,250.721L345.832,253.473L320.413,253.473C320.413,254.302 320.577,255.362 320.904,256.65C321.232,257.938 321.832,259.194 322.706,260.417C323.58,261.64 324.748,262.688 326.211,263.562C327.674,264.435 329.563,264.872 331.878,264.872C333.887,264.872 335.83,264.392 337.709,263.431C339.587,262.47 341.028,261.16 342.032,259.5L344.915,261.924ZM423.203,218.095L427.134,218.095L427.134,242.663L427.265,242.663C428.051,241.003 429.362,239.573 431.196,238.372C433.03,237.171 435.17,236.57 437.616,236.57C439.975,236.57 441.897,236.941 443.381,237.684C444.866,238.426 446.035,239.398 446.886,240.599C447.738,241.8 448.328,243.187 448.655,244.759C448.983,246.332 449.147,247.948 449.147,249.607L449.147,267.623L445.216,267.623L445.216,249.804C445.216,248.581 445.107,247.391 444.888,246.233C444.67,245.076 444.288,244.039 443.742,243.122C443.196,242.204 442.432,241.473 441.449,240.927C440.466,240.381 439.189,240.108 437.616,240.108C436.175,240.108 434.81,240.359 433.522,240.861C432.233,241.364 431.12,242.128 430.181,243.154C429.242,244.181 428.499,245.469 427.953,247.02C427.407,248.57 427.134,250.394 427.134,252.49L427.134,267.623L423.203,267.623L423.203,218.095ZM341.901,249.935C341.901,248.581 341.628,247.314 341.082,246.135C340.537,244.956 339.794,243.919 338.855,243.023C337.916,242.128 336.802,241.418 335.514,240.894C334.225,240.37 332.861,240.108 331.419,240.108C329.279,240.108 327.499,240.545 326.08,241.418C324.66,242.292 323.536,243.296 322.706,244.432C321.876,245.567 321.287,246.67 320.937,247.74C320.588,248.81 320.413,249.542 320.413,249.935L341.901,249.935ZM482.034,249.935C482.034,248.581 481.761,247.314 481.215,246.135C480.669,244.956 479.927,243.919 478.988,243.023C478.049,242.128 476.935,241.418 475.647,240.894C474.358,240.37 472.994,240.108 471.552,240.108C469.412,240.108 467.632,240.545 466.213,241.418C464.793,242.292 463.669,243.296 462.839,244.432C462.009,245.567 461.419,246.67 461.07,247.74C460.721,248.81 460.546,249.542 460.546,249.935L482.034,249.935Z" style="fill: #9ca3af; fill-rule:nonzero;"/>
    </g>
</svg>
