<?xml version="1.0" encoding="UTF-8" standalone="no"?>
<!DOCTYPE svg PUBLIC "-//W3C//DTD SVG 1.1//EN" "http://www.w3.org/Graphics/SVG/1.1/DTD/svg11.dtd">
<svg width="100%" height="100%" viewBox="0 0 3334 1082" version="1.1" xmlns="http://www.w3.org/2000/svg" xmlns:xlink="http://www.w3.org/1999/xlink" xml:space="preserve" xmlns:serif="http://www.serif.com/" style="fill-rule:evenodd;clip-rule:evenodd;stroke-linejoin:round;stroke-miterlimit:2;">
    <g transform="matrix(1,0,0,1,-2127.71,-1592.77)">
        <g transform="matrix(5.55556,0,0,5.55556,0,0)">
            <g transform="matrix(0.18,0,0,0.18,0,0)">
                <path d="M5458.41,2398.1L5146.64,2441.45C5157.71,2532.77 5219.18,2580.73 5323.41,2580.73C5360.31,2580.73 5404.58,2574.28 5435.02,2550.3L5441.48,2554.91C5442.4,2560.44 5442.73,2580.73 5442.73,2586.27C5442.73,2625.87 5360.31,2673.9 5292.97,2673.9C5134.32,2673.9 5015.66,2584.42 5015.66,2421.16C5015.66,2271.73 5108.82,2166.57 5259.17,2166.57C5378.16,2166.57 5461.17,2241.29 5461.17,2360.28C5461.17,2373.2 5460.26,2385.18 5458.41,2398.1ZM4969.45,2398.1L4657.68,2441.45C4668.75,2532.77 4730.22,2580.73 4834.46,2580.73C4871.35,2580.73 4915.63,2574.28 4946.06,2550.3L4952.52,2554.91C4953.44,2560.44 4953.77,2580.73 4953.77,2586.27C4953.77,2625.87 4871.35,2673.9 4804.02,2673.9C4645.36,2673.9 4526.7,2584.42 4526.7,2421.16C4526.7,2271.73 4619.86,2166.57 4770.22,2166.57C4889.21,2166.57 4972.22,2241.29 4972.22,2360.28C4972.22,2373.2 4971.3,2385.18 4969.45,2398.1ZM3687.25,2281.87C3686.32,2275.04 3673.42,2181.33 3673.42,2181.33C3714.01,2170.27 3764.7,2166.57 3823.74,2166.57C3945.49,2166.57 4039.39,2215.46 4039.39,2357.51L4036.62,2554.91C4036.62,2582.58 4044.93,2600.1 4068.91,2600.1C4077.21,2600.1 4084.59,2598.26 4090.12,2594.57L4094.74,2598.26C4090.12,2639.77 4057.84,2673.89 4001.58,2673.89C3938.85,2673.89 3909.34,2618.55 3904.72,2583.5L3901.95,2583.5C3856.75,2631.47 3816.17,2673.89 3756.22,2673.89C3674.12,2673.89 3626.15,2609.33 3626.15,2529.08C3626.15,2433.15 3696.26,2391.64 3830.01,2391.64C3853.07,2391.64 3880.74,2393.48 3901.95,2396.26L3901.95,2354.74C3901.95,2294.79 3866.17,2265.27 3806.21,2265.27C3749.46,2265.27 3731.99,2271.38 3687.25,2281.87ZM2808.45,2673.89C2744.8,2673.89 2710.67,2632.38 2710.67,2564.13L2710.67,2341.83C2710.67,2318.77 2702.33,2303.66 2690.03,2295.8C2683.14,2291.39 2675.01,2289.25 2666.4,2289.25C2622.12,2289.25 2582.46,2337.22 2555.71,2366.73L2555.71,2673.89L2419.2,2673.89L2419.2,2341.83C2419.2,2305.85 2398.9,2289.25 2374.93,2289.25C2330.64,2289.25 2290.98,2337.22 2264.23,2366.73L2264.23,2673.89L2127.71,2673.89L2127.71,2181.33L2261.46,2181.33L2261.46,2275.42L2264.23,2275.42C2317.73,2215.46 2373.08,2166.58 2448.71,2166.58C2474.54,2166.58 2500.36,2175.8 2519.74,2193.33C2543.72,2214.54 2552.03,2244.05 2554.79,2275.42L2555.71,2275.42C2609.21,2215.46 2664.55,2166.58 2740.19,2166.58C2766.02,2166.58 2791.85,2175.8 2811.22,2193.33C2843.5,2221.92 2847.19,2265.27 2847.19,2306.78L2847.19,2556.75C2847.19,2580.73 2854.56,2600.1 2877.62,2600.1C2885.93,2600.1 2892.39,2598.26 2897.92,2594.57L2902.53,2598.26C2897.92,2639.77 2864.71,2673.89 2808.45,2673.89ZM3097.15,2673.89C3032.59,2673.89 2998.46,2632.38 2998.46,2564.13L2998.46,2181.33L3134.98,2181.33L3134.98,2556.75C3134.98,2580.73 3142.35,2600.1 3165.42,2600.1C3172.79,2600.1 3180.17,2598.26 3185.71,2594.57L3190.32,2598.26C3185.71,2639.77 3153.42,2673.89 3097.15,2673.89ZM4279.82,2673.89C4191.27,2673.89 4140.53,2640.69 4140.53,2576.12C4140.53,2570.59 4140.53,2565.05 4141.46,2559.52L4148.83,2555.83C4181.12,2576.12 4222.63,2586.27 4265.06,2586.27C4310.26,2586.27 4346.23,2570.59 4346.23,2531.85C4346.23,2498.64 4313.95,2497.72 4266.91,2474.65C4202.34,2442.37 4149.23,2406.86 4149.23,2322.92C4149.23,2248.2 4211.95,2167.04 4356.77,2167.04C4396.43,2167.04 4432.41,2170.73 4464.7,2176.26L4449.01,2270.34C4423.18,2262.04 4389.05,2256.51 4357.7,2256.51C4307.88,2256.51 4281.13,2276.8 4281.13,2304.47C4281.13,2334.91 4316.71,2354.74 4362.83,2377.8C4424.63,2408.24 4483.67,2428.54 4483.67,2512.48C4483.67,2579.81 4432.94,2673.89 4279.82,2673.89ZM3590.1,2302.16C3576.26,2297.55 3562.43,2295.71 3547.66,2295.71C3498.78,2295.71 3460.04,2335.38 3424.06,2371.35L3424.06,2673.89L3287.55,2673.89L3287.55,2291.1C3287.55,2270.8 3281.09,2255.13 3257.11,2255.13C3249.73,2255.13 3242.35,2256.97 3235.9,2260.66L3231.28,2256.97C3236.81,2207.16 3278.32,2181.33 3324.44,2181.33C3378.86,2181.33 3416.68,2214.54 3416.68,2271.73L3416.68,2282.8L3419.45,2282.8C3460.04,2223.76 3499.7,2166.58 3573.49,2166.58C3580.87,2166.58 3589.17,2167.49 3597.47,2169.34L3590.1,2302.16ZM3901.95,2471.89C3884.43,2468.2 3864.13,2466.35 3841.08,2466.35C3780.19,2466.35 3755.29,2490.34 3755.29,2525.39C3755.29,2554.91 3773.74,2578.89 3808.79,2578.89C3846.61,2578.89 3874.28,2553.06 3901.95,2526.31L3901.95,2471.89ZM5247.18,2244.98C5174.31,2244.98 5150.32,2298.47 5144.79,2364.89L5331.12,2336.3C5331.12,2287.41 5304.37,2244.98 5247.18,2244.98ZM4758.22,2244.98C4685.36,2244.98 4661.37,2298.47 4655.83,2364.89L4842.16,2336.3C4842.16,2287.41 4815.41,2244.98 4758.22,2244.98ZM3000.3,1988.82C2981.59,2021.3 3016.8,2052.65 3016.8,2052.65L3028.9,2013.59C3028.9,2013.59 3055.86,2070.98 3188.99,2065.85C3163.85,2040.39 3103.17,1978.93 3103.17,1978.93L3118.03,1956.38C3118.03,1956.38 3126.83,1951.43 3133.43,1956.38C3140.03,1961.33 3125.44,1934.37 3108.67,1934.37C3084.65,1934.37 3032.94,1988.82 3000.3,1988.82ZM3451.97,1908.61C3451.97,1908.62 3451.97,1908.62 3451.96,1908.62L3451.97,1908.61C3453.97,1907.17 3437.4,1808.64 3360.18,1757.5C3360.18,1757.5 3337.3,1846.72 3390.7,1918.27C3351.86,1909.77 3309.48,1900.48 3309.48,1900.48C3309.48,1900.48 3320.31,1980.16 3409.27,2000.28L3409.27,1956.18C3409.27,1956.18 3456.84,1960.05 3482.76,1925.24C3489.33,1925.24 3496.49,1919.14 3503.64,1925.24C3503.64,1925.24 3498.97,1909.38 3487.4,1902.81C3474.16,1895.28 3452.61,1908.23 3451.97,1908.61ZM3662.86,1870.54C3673.22,1849.05 3680.09,1841.86 3683.99,1844.12C3726.23,1889.11 3761.03,1871.17 3798.18,1891.72C3798.63,1891.97 3799.07,1891.39 3798.69,1891.04C3784.04,1877.08 3783.71,1841.91 3754.8,1823.16C3752.87,1821.91 3750.81,1819.75 3751.4,1817.52C3752.41,1813.75 3761.31,1803.95 3762.12,1803.21C3775.68,1790.87 3775.42,1794.4 3786.84,1792.45C3787.81,1792.29 3787.97,1790.98 3787.09,1790.54C3768.98,1781.54 3746.24,1783.73 3726.82,1789.74C3701.97,1797.42 3686.51,1805.32 3661.03,1826.83C3656.67,1830.51 3624.2,1838.63 3624.2,1838.63C3624.2,1838.63 3620.61,1872.32 3662.86,1870.54ZM4117.07,1740.72C4120.01,1741.64 4126.32,1744.83 4127.02,1748.5C4127.1,1748.89 4126.74,1749.22 4126.34,1749.16C4119.56,1747.97 4114.26,1752.92 4109.81,1757.28C4105.01,1762 4099.68,1766.16 4094.03,1769.8C4082.4,1777.29 4069.47,1782.5 4056.29,1786.5C4053.06,1787.48 4049.83,1788.38 4046.58,1789.24C4028.26,1794.06 4008.67,1796.2 3990.04,1791.89C3969.34,1787.1 3950.56,1773.57 3941.41,1754.02C3941.26,1753.69 3941.66,1753.39 3941.94,1753.62C3957.57,1766.89 4004.45,1752.61 4004.45,1752.61C3960.8,1713.23 3993.42,1656.44 3943.51,1592.77C4025.24,1604.48 4042.66,1725.87 4042.66,1725.87C4095.3,1698.34 4115.64,1618.38 4115.65,1618.31C4115.14,1620.35 4117.44,1625.31 4117.93,1627.44C4118.69,1630.85 4119.36,1634.26 4119.94,1637.7C4120.94,1643.69 4121.64,1649.73 4121.96,1655.8C4122.5,1665.88 4122.02,1676.03 4120.18,1685.97C4117.6,1699.84 4112.3,1713.05 4104.5,1724.8C4102.45,1727.88 4094.75,1734.85 4094.53,1738.64C4094.44,1740.13 4093.97,1739.74 4095.11,1740.73C4095.71,1741.27 4111.49,1738.97 4117.07,1740.72Z" style="fill:#9CA3AF;fill-rule:nonzero;"/>
            </g>
        </g>
    </g>
</svg>
