<?xml version="1.0" encoding="UTF-8"?>
<svg width="100px" height="25px" viewBox="0 0 100 25" version="1.1" xmlns="http://www.w3.org/2000/svg" xmlns:xlink="http://www.w3.org/1999/xlink">
    <title>Ruzuku</title>
    <g id="Page-1" stroke="none" stroke-width="1" fill="none" fill-rule="evenodd">
        <g id="Artboard" transform="translate(-540.000000, -12730.000000)" fill="#9CA3AF" fill-rule="nonzero">
            <g id="Section-Four" transform="translate(0.000000, 12183.000000)">
                <g id="Secction-Four-Content" transform="translate(215.000000, 119.000000)">
                    <g id="Badge-Group" transform="translate(295.000000, 401.000000)">
                        <g id="Ruzuku" transform="translate(30.000000, 27.000000)">
                            <path d="M9.72971842,10.6215926 C9.41175414,10.4849807 9.05669432,10.3597523 8.6645364,10.2459096 C8.27238105,10.1320662 7.8007327,10.0751446 7.24959392,10.0751446 C6.2956985,10.0751446 5.56438141,10.3768288 5.05563753,10.9801997 C4.54689364,11.583568 4.2925217,12.5910832 4.2925217,14.0027349 L4.2925217,24.5901492 L3.11605308,24.5901492 C2.16215765,24.5901492 1.40434376,24.3396938 0.842606254,23.8387831 C0.280868751,23.3378724 0,22.6092765 0,21.6529926 L0,13.1830561 C0,12.2723098 0.11658699,11.3786398 0.349760457,10.5020461 C0.582934694,9.62545237 0.953892856,8.85701006 1.46263674,8.19671915 C1.97138062,7.53642825 2.62850664,7.00136501 3.43401736,6.59152946 C4.23952808,6.1816939 5.20402223,5.97677612 6.32749467,5.97677612 C6.98462069,5.97677612 7.54106139,6.06785075 7.99680909,6.24999896 C8.45255935,6.43214822 8.8182179,6.66552575 9.09378729,6.95013622 C9.36935668,7.2347441 9.570735,7.55919833 9.69791969,7.92349631 C9.82510566,8.2877943 9.88869851,8.64070983 9.88869851,8.98223773 L9.88869851,10.6215825 L9.72971611,10.6215825 L9.72971842,10.6215926 Z" id="Path"></path>
                            <path d="M27.344849,16.3251379 C27.344849,22.1083707 24.843527,25 19.8408754,25 C18.7809928,25 17.7900018,24.8178507 16.8678949,24.4535517 C15.9457982,24.0892537 15.1455868,23.5484967 14.4672608,22.8312858 C13.7889348,22.1140723 13.2536941,21.2374785 12.8615387,20.2014942 C12.4693834,19.1655203 12.2733044,17.9758574 12.2733044,16.6325081 L12.2733044,6.14752041 L13.0682164,6.14752041 C14.2976812,6.14752041 15.1932811,6.4207536 15.7550057,6.96720187 C16.3167433,7.51365014 16.597612,8.33332126 16.597612,9.4262178 L16.597612,16.1885019 C16.597612,17.8733817 16.9314744,19.085825 17.5992017,19.8257879 C18.2669264,20.5657689 19.0883378,20.9357607 20.0634281,20.9357607 C20.9537286,20.9357607 21.6744495,20.588539 22.2255883,19.8940956 C22.7767271,19.1996521 23.0522965,18.0669118 23.0522965,16.4958721 L23.0522965,6.14752041 L23.8154123,6.14752041 C25.0660746,6.14752041 25.9669738,6.42074325 26.5181126,6.96719152 C27.0692514,7.51363979 27.344849,8.3333109 27.344849,9.42620745 L27.344849,16.3251172 L27.344849,16.3251379 Z" id="Path"></path>
                            <path d="M44.1970831,22.4385601 C44.1970831,23.0077759 43.9692021,23.5086866 43.5134513,23.9412922 C43.0577011,24.3738979 42.5542565,24.5901981 42.0031178,24.5901981 L33.6406476,24.5901981 C32.6443573,24.5901981 31.9077408,24.3682035 31.4307931,23.924216 C30.9538454,23.4802279 30.7153715,22.8939333 30.7153715,22.1653373 C30.7153715,21.4595088 30.9485458,20.6796814 31.414895,19.8258578 C31.881244,18.9720342 32.5171726,18.0669791 33.3226833,17.1106849 L37.647014,12.0560533 C37.9013857,11.7372929 38.171656,11.3900712 38.4578241,11.0143882 C38.7439922,10.6387051 38.9612686,10.2914834 39.1096507,9.97272301 L30.6835882,9.97272301 L30.6835882,8.57245109 C30.6835882,7.88939011 30.9167624,7.31448312 31.3831117,6.84772495 C31.8494607,6.38096678 32.5595803,6.1475877 33.5134757,6.1475877 L41.3036148,6.1475877 C41.8123587,6.1475877 42.2363102,6.2215858 42.5754745,6.36958226 C42.9146363,6.51757846 43.1849063,6.70541894 43.3862846,6.9331068 C43.5876622,7.16079336 43.7360451,7.41124742 43.8314361,7.68447284 C43.9268257,7.95769569 43.9745202,8.23092112 43.9745202,8.50414396 C43.9745202,9.23273993 43.7943401,10.0125673 43.4339802,10.8436234 C43.073621,11.6746796 42.5224822,12.522812 41.7805638,13.3880207 L37.4880293,18.3743524 C37.1912624,18.7386504 36.8944956,19.1143334 36.5977288,19.5014015 C36.3009619,19.8884696 36.0571887,20.275535 35.8664091,20.6626031 L44.1970831,20.6626031 L44.1970831,22.4385581 L44.1970831,22.4385601 Z" id="Path"></path>
                            <path d="M62.6072912,16.3251379 C62.6072912,22.1083707 60.1059693,25 55.1033177,25 C54.043435,25 53.0524441,24.8178507 52.1303371,24.4535517 C51.2082404,24.0892537 50.4080291,23.5484967 49.729703,22.8312858 C49.051377,22.1140723 48.5161363,21.2374785 48.1239809,20.2014942 C47.7318256,19.1655203 47.5357466,17.9758574 47.5357466,16.6325081 L47.5357466,6.14752041 L48.3306586,6.14752041 C49.5601234,6.14752041 50.4557233,6.4207536 51.017448,6.96720187 C51.5791855,7.51365014 51.8600542,8.33332126 51.8600542,9.4262178 L51.8600542,16.1885019 C51.8600542,17.8733817 52.1939166,19.085825 52.8616439,19.8257879 C53.5293687,20.5657689 54.35078,20.9357607 55.3258703,20.9357607 C56.2161709,20.9357607 56.9368918,20.588539 57.4880306,19.8940956 C58.0391693,19.1996521 58.3147387,18.0669118 58.3147387,16.4958721 L58.3147387,6.14752041 L59.0778546,6.14752041 C60.3285168,6.14752041 61.2294161,6.42074325 61.7805548,6.96719152 C62.3316936,7.51363979 62.6072912,8.3333109 62.6072912,9.42620745 L62.6072912,16.3251172 L62.6072912,16.3251379 Z" id="Path"></path>
                            <path d="M68.2669585,0 C69.3056437,0 70.0528615,0.28462341 70.5086092,0.853839173 C70.9643594,1.42305494 71.1922345,2.15165349 71.1922345,3.03962967 L71.1922345,14.036895 C72.0189427,12.8756934 72.8509502,11.7258768 73.6882571,10.587453 C74.525564,9.44901894 75.4423639,8.36750743 76.4386645,7.34291078 C76.9474084,6.81923259 77.4720504,6.48908713 78.0125904,6.35247442 C78.5531305,6.21586248 79.1625622,6.14755638 79.8408883,6.14755638 L82.2892166,6.14755638 L82.2892166,6.31832137 C81.9924498,6.59154421 81.5419989,7.06968742 80.9378665,7.75274582 C80.3337341,8.4358068 79.6925036,9.18717026 79.0141801,10.006844 C78.3358541,10.8265151 77.66283,11.6575712 76.9951052,12.5000124 C76.3273805,13.3424536 75.7709398,14.0710496 75.3257908,14.6858029 C76.0041168,15.5965492 76.6877397,16.5072954 77.3766644,17.4180313 C78.0655892,18.3287776 78.7916069,19.2053713 79.5547227,20.0478229 C79.9362793,20.4576584 80.2754436,20.7991889 80.5722105,21.0724118 C80.8689773,21.3456346 81.1445467,21.5676312 81.3989186,21.7383939 C81.6532903,21.9091589 81.8970638,22.0457718 82.1302383,22.1482294 C82.3634125,22.2506883 82.607186,22.3474552 82.861558,22.4385311 C82.6283837,23.1671271 82.3104192,23.7249604 81.9076625,24.1120285 C81.5049085,24.4990965 80.8583786,24.6926293 79.9680781,24.6926293 C79.4805316,24.6926293 78.9823865,24.5787859 78.4736426,24.3510988 C77.9648987,24.1234122 77.5303485,23.8160356 77.1699867,23.4289675 C76.0677092,22.1994608 75.0343233,20.924414 74.0698215,19.6038374 C73.1053273,18.2832555 72.1461351,16.9399088 71.1922294,15.5737817 L71.1922294,24.5560062 L69.8249812,24.5901593 C67.874798,24.6129279 66.8997077,23.5314178 66.8997077,21.345617 L66.8997077,0 L68.2669559,0 L68.2669585,0 Z" id="Path"></path>
                            <path d="M100,16.3251379 C100,22.1083707 97.498678,25 92.4960264,25 C91.4361438,25 90.4451528,24.8178507 89.5230459,24.4535517 C88.6009492,24.0892537 87.8007378,23.5484967 87.1224118,22.8312858 C86.4440858,22.1140723 85.9088451,21.2374785 85.5166897,20.2014942 C85.1245344,19.1655203 84.9284554,17.9758574 84.9284554,16.6325081 L84.9284554,6.14752041 L85.7233674,6.14752041 C86.9528322,6.14752041 87.8484321,6.4207536 88.4101568,6.96720187 C88.9718943,7.51365014 89.252763,8.33332126 89.252763,9.4262178 L89.252763,16.1885019 C89.252763,17.8733817 89.5866254,19.085825 90.2543527,19.8257879 C90.9220774,20.5657689 91.7434888,20.9357607 92.7185791,20.9357607 C93.6088796,20.9357607 94.3296006,20.588539 94.8807393,19.8940956 C95.4318781,19.1996521 95.7074475,18.0669118 95.7074475,16.4958721 L95.7074475,6.14752041 L96.4705633,6.14752041 C97.7212256,6.14752041 98.6221248,6.42074325 99.1732636,6.96719152 C99.7244024,7.51363979 100,8.3333109 100,9.42620745 L100,16.3251172 L100,16.3251379 Z" id="Path"></path>
                        </g>
                    </g>
                </g>
            </g>
        </g>
    </g>
</svg>